# xmcd
#
# Track frame offsets: 
#        150
#        18197
#        37855
#        51975
#        65215
#        75835
#        95340
#        108192
#        123507
#        134495
#
# Disc length: 2029 seconds
#
# Revision: 4
# Processed by: cddbd v1.4PL0 Copyright (c) Steve Scherf et al.
# Submitted via: ExactAudioCopy v0.95a3
#
DISCID=7a07eb0a
DTITLE=Elis Regina - Luz das Estrelas
DYEAR=1994
DGENRE=MPB
TTITLE0=Para Lennon e McCartney
TTITLE1=No Dia em que Eu Vim Embora
TTITLE2=Mestre-Sala dos Mares
TTITLE3=Velho Arvoredo
TTITLE4=A Banca do Distinto
TTITLE5=Corsário
TTITLE6=Bodas de Prata
TTITLE7=Gol Anulado
TTITLE8=Triste
TTITLE9=Doente Morena
EXTD=YEAR: 1994
EXTT0=
EXTT1=
EXTT2=
EXTT3=
EXTT4=
EXTT5=
EXTT6=
EXTT7=
EXTT8=
EXTT9=
PLAYORDER=
